<svg xmlns="http://www.w3.org/2000/svg" fill-rule="evenodd" viewBox="0 0 100 100">
    <path d="M50 11.157c-21.89 0-39.699 17.809-39.699 39.699S28.11 90.555 50 90.555s39.699-17.809 39.699-39.699S71.89 11.157 50 11.157zm28.52 62.76c-.027-.001-.053-.008-.08-.008H65.151l-6.352-10.778 6.221-10.775h12.658l6.637 11.495a36.742 36.742 0 0 1-5.795 10.066zm-13.396 2.992h10.694a36.707 36.707 0 0 1-16.077 9.324l5.383-9.324zm-30.277 0 5.378 9.314a36.706 36.706 0 0 1-16.043-9.314h10.665zm-.056-3h-13.26c-.018 0-.035.005-.054.005a36.717 36.717 0 0 1-5.792-10.063l6.636-11.495h12.601l6.221 10.775-6.352 10.778zm-21.49-23.053c0-3.151.4-6.211 1.151-9.132l5.272 9.132-5.272 9.132a36.632 36.632 0 0 1-1.151-9.132zm8.177-23.058c.018.001.035.005.053.005h13.26l6.353 10.779-6.221 10.774H22.322l-6.636-11.494a36.642 36.642 0 0 1 5.792-10.064zm13.369-2.995H24.182a36.712 36.712 0 0 1 16.043-9.314l-5.378 9.314zm8.899 36.836L37.52 50.856l6.226-10.782h12.45l6.226 10.782-6.226 10.783h-12.45zm21.378-36.836-5.383-9.324a36.716 36.716 0 0 1 16.077 9.324H65.124zm-.39 3H78.44c.027 0 .053-.007.08-.008a36.727 36.727 0 0 1 5.795 10.066l-6.637 11.494H65.02l-6.234-10.798 5.948-10.754zm15.542 23.053 5.273-9.132a36.626 36.626 0 0 1 1.151 9.132c0 3.152-.4 6.211-1.151 9.132l-5.273-9.132zM55.799 14.62c.022.051.04.102.068.151l6.459 11.187-6.148 11.116H43.737l-6.32-10.723 6.686-11.58c.027-.047.044-.097.066-.146a36.75 36.75 0 0 1 5.83-.468c1.974 0 3.91.161 5.8.463zm-11.63 72.467c-.022-.049-.038-.098-.066-.146L37.417 75.36l6.32-10.722h12.468l6.334 10.747-6.672 11.556c-.028.049-.046.101-.068.151-1.89.301-3.826.463-5.8.463-1.984 0-3.93-.164-5.83-.468z"/>
</svg>
