<svg xmlns="http://www.w3.org/2000/svg" fill-rule="evenodd" viewBox="0 0 100 100">
    <path d="M78.384 49.001c-1.051 0-2.02.454-2.855 1.263v-4.939c0-10.147-5.95-18.928-14.542-23.042.432-1.23.66-2.522.66-3.864 0-6.423-5.225-11.648-11.646-11.648-6.427 0-11.655 5.225-11.655 11.648a11.7 11.7 0 0 0 .67 3.863c-8.596 4.114-14.549 12.896-14.549 23.043v4.935c-.834-.807-1.8-1.259-2.849-1.259-3.334 0-5.849 4.565-5.849 10.62v8.484c0 6.052 2.515 10.616 5.849 10.616 1.654 0 3.106-1.126 4.149-2.997 3.374 10.154 12.959 17.501 24.234 17.501 11.272 0 20.854-7.348 24.227-17.503 1.045 1.872 2.498 2.999 4.155 2.999 3.335 0 5.85-4.564 5.85-10.616v-8.484c0-6.054-2.514-10.62-5.849-10.62zM41.346 18.42c0-4.769 3.883-8.648 8.655-8.648 4.768 0 8.646 3.879 8.646 8.648 0 .949-.158 1.862-.448 2.733a25.427 25.427 0 0 0-16.399.001 8.571 8.571 0 0 1-.454-2.734zm8.656 4.375c8.428 0 15.786 4.657 19.648 11.53-1.057-.811-2.228-1.458-3.481-1.715-1.701-.348-3.36.055-4.805 1.167-1.549 1.19-2.968 2.396-4.219 3.458-2.854 2.423-5.317 4.517-7.144 4.517-1.829 0-4.296-2.096-7.152-4.523-1.249-1.061-2.665-2.263-4.209-3.452-1.445-1.111-3.108-1.516-4.805-1.166-1.259.258-2.436.909-3.497 1.726 3.863-6.88 11.227-11.542 19.664-11.542zM24.467 68.106c0 4.578-1.714 7.616-2.849 7.616s-2.849-3.038-2.849-7.616v-8.484c0-4.581 1.715-7.62 2.849-7.62s2.849 3.039 2.849 7.62v8.484zm25.535 22.12c-12.426 0-22.535-10.106-22.535-22.528V45.326c0-1.086.082-2.153.231-3.198.055-.067.107-.136.15-.214.887-1.577 3.799-5.794 6.593-6.365.854-.174 1.606.019 2.37.606 1.487 1.144 2.813 2.271 4.095 3.36 3.444 2.926 6.164 5.237 9.095 5.237 2.928 0 5.646-2.308 9.085-5.23 1.286-1.092 2.615-2.221 4.106-3.367.764-.588 1.516-.781 2.37-.606 2.793.57 5.704 4.788 6.59 6.365.041.074.091.139.143.203.15 1.049.232 2.119.232 3.209v22.371c.001 12.422-10.104 22.529-22.525 22.529zm31.231-22.12c0 4.578-1.715 7.616-2.85 7.616-1.137 0-2.855-3.038-2.855-7.616v-8.484c0-4.581 1.719-7.62 2.855-7.62 1.135 0 2.85 3.039 2.85 7.62v8.484z"/>
    <path d="M38.03 59.085a8.28 8.28 0 0 0-7.913 5.76 1.5 1.5 0 0 0 .97 1.887 1.497 1.497 0 0 0 1.887-.969 5.291 5.291 0 0 1 5.057-3.678 5.289 5.289 0 0 1 5.057 3.684 1.5 1.5 0 1 0 2.857-.916 8.284 8.284 0 0 0-7.915-5.768zm23.941 0a8.276 8.276 0 0 0-7.912 5.761 1.5 1.5 0 0 0 2.858.916 5.285 5.285 0 0 1 5.055-3.677c2.32 0 4.353 1.48 5.059 3.684a1.5 1.5 0 0 0 2.858-.916 8.289 8.289 0 0 0-7.918-5.768zM50.002 46.21a4.468 4.468 0 0 0-4.462 4.463 4.47 4.47 0 0 0 4.462 4.467 4.468 4.468 0 0 0 4.459-4.467c0-2.46-2-4.463-4.459-4.463zm0 5.93a1.466 1.466 0 0 1-.001-2.93c.805 0 1.459.657 1.459 1.463a1.463 1.463 0 0 1-1.458 1.467z"/>
</svg>
