<svg xmlns="http://www.w3.org/2000/svg" fill-rule="evenodd" viewBox="0 0 100 100">
    <path d="M92.654 42.283a1.5 1.5 0 1 0 0-3H83.47V22.217c0-6.435-5.233-11.67-11.667-11.67-6.437 0-11.674 5.235-11.674 11.67v17.066H46.162V22.216c0-6.435-5.237-11.67-11.674-11.67-6.433 0-11.667 5.235-11.667 11.67v17.067H7.347a1.5 1.5 0 1 0 0 3h35.815v38.385c-1.258-1.534-3.345-2.451-5.629-2.451-2.344 0-4.487.96-5.733 2.567l-3.305 4.265c-.682.879-1.94 1.404-3.366 1.404h-.001c-1.425-.001-2.682-.525-3.363-1.403l-3.306-4.266c-1.246-1.607-3.389-2.567-5.732-2.567-2.344 0-4.487.96-5.733 2.567a1.5 1.5 0 1 0 2.371 1.837c.682-.88 1.938-1.405 3.362-1.405 1.423 0 2.679.525 3.361 1.405l3.307 4.266c1.245 1.605 3.389 2.564 5.733 2.565h.001c2.346 0 4.49-.959 5.737-2.565l3.306-4.266c.682-.88 1.938-1.405 3.362-1.405 1.423 0 2.679.525 3.361 1.405l2.268 2.925v.222c0 .782.601 1.418 1.366 1.487 1.274 1.379 3.249 2.196 5.404 2.197h.001c2.343 0 4.487-.959 5.733-2.565l3.306-4.266c.682-.88 1.939-1.405 3.364-1.405 1.426 0 2.684.525 3.365 1.405l3.307 4.266c1.246 1.606 3.389 2.565 5.732 2.565s4.486-.959 5.732-2.565l2.351-3.034c.248-.172.439-.419.547-.706l.408-.526c.682-.88 1.938-1.405 3.361-1.405 1.424 0 2.681.525 3.362 1.405a1.5 1.5 0 0 0 2.371-1.837c-1.246-1.607-3.389-2.567-5.733-2.567a7.92 7.92 0 0 0-3.669.883V42.283h9.183zM63.13 22.217c0-4.781 3.891-8.67 8.674-8.67 4.779 0 8.667 3.889 8.667 8.67v17.066H63.13V22.217zM25.821 39.283V22.216c0-4.781 3.888-8.67 8.667-8.67 4.783 0 8.674 3.889 8.674 8.67v17.067H25.821zm54.65 28.872H46.162V55.613h34.309v12.542zM78.102 85.05c-.682.879-1.938 1.403-3.361 1.403s-2.68-.524-3.361-1.403l-3.307-4.266c-1.245-1.607-3.39-2.567-5.736-2.567-2.346 0-4.49.96-5.735 2.567l-3.306 4.265c-.682.879-1.938 1.404-3.362 1.404h-.001c-1.423 0-2.679-.525-3.36-1.403l-.41-.529V71.155h34.309v10.838l-2.37 3.057zm2.369-32.437H46.162v-10.33h34.309v10.33z"/>
</svg>
