<svg xmlns="http://www.w3.org/2000/svg" fill-rule="evenodd" viewBox="0 0 100 100">
    <path d="M94.924 74H52.333C43.31 64.882 34.39 60.804 23.459 60.804c-.885 0-1.736.034-2.567.089L33.387 34.1h20.7a1.5 1.5 0 0 0 1.5-1.5v-9.055a1.5 1.5 0 0 0-1.5-1.5H31.265c-.023-.024-.032-.056-.057-.079L17.736 9.638a1.5 1.5 0 1 0-2.025 2.213L26.85 22.045h-5.431a1.5 1.5 0 0 0-1.5 1.5V32.6a1.5 1.5 0 0 0 1.5 1.5h8.658L17.385 61.313C8.919 62.815 4.032 67.662 3.624 75.14a1.474 1.474 0 0 0-.048.36v13.756a1.5 1.5 0 0 0 1.5 1.5h89.848a1.5 1.5 0 0 0 1.5-1.5V75.5a1.5 1.5 0 0 0-1.5-1.5zM22.919 25.045h29.668V31.1H22.919v-6.055zm.54 38.758c9.324 0 16.823 3.09 24.551 10.196H6.738c1.331-8.806 10.866-10.196 16.721-10.196zm69.965 23.953H6.576V77h86.848v10.756z"/>
</svg>
