<svg xmlns="http://www.w3.org/2000/svg" fill-rule="evenodd" viewBox="0 0 100 100">
    <path d="M78.509 77.586c6.919-7.148 11.19-16.875 11.19-27.586 0-10.67-4.239-20.362-11.112-27.503-.046-.061-.072-.133-.129-.188-.039-.037-.089-.051-.13-.084-7.209-7.352-17.243-11.924-28.329-11.924C28.109 10.301 10.3 28.11 10.3 50c0 10.554 4.148 20.151 10.888 27.269.073.224.182.437.362.613.162.157.352.26.551.33 7.175 7.096 17.032 11.487 27.897 11.487 11.109 0 21.161-4.593 28.374-11.972.021-.018.048-.025.068-.044.032-.028.042-.067.069-.097zM13.339 51.5h18.519c-.298 8.539-3.508 16.602-9.161 22.99-5.525-6.152-9.001-14.175-9.358-22.99zm73.322-3H68.147a36.463 36.463 0 0 1 9.246-22.886c5.472 6.139 8.913 14.12 9.268 22.886zm-21.514 0H51.438V13.338c9.235.358 17.6 4.144 23.865 10.119A39.437 39.437 0 0 0 65.147 48.5zm-16.71 0H34.85a39.604 39.604 0 0 0-10.179-24.892c-.021-.023-.046-.04-.068-.062 6.248-6 14.603-9.817 23.835-10.206V48.5h-.001zm-13.579 3h13.58v35.16c-9.137-.385-17.415-4.128-23.642-10.022 6.229-6.963 9.76-15.788 10.062-25.138zm16.579 0h13.709a39.439 39.439 0 0 0 10.153 25.047c-6.265 5.973-14.629 9.758-23.862 10.116V51.5zm16.71 0h18.514c-.355 8.768-3.798 16.75-9.271 22.891A36.451 36.451 0 0 1 68.147 51.5zM22.523 25.711A36.61 36.61 0 0 1 31.85 48.5H13.339c.353-8.72 3.762-16.663 9.184-22.789z"/>
</svg>
